<svg width="178" height="178" viewBox="0 0 178 178" fill="none" xmlns="http://www.w3.org/2000/svg">
<g id="Blender">
<g id="Group 1">
<path id="Vector" d="M92.6569 97.2116C92.9875 91.3165 95.8696 86.1076 100.236 82.4271C104.509 78.8089 110.249 76.5944 116.549 76.5944C122.819 76.5944 128.558 78.8058 132.831 82.4271C137.198 86.1076 140.067 91.3165 140.41 97.2116C140.741 103.263 138.305 108.908 134.047 113.088C129.681 117.33 123.505 120.012 116.549 120.012C109.594 120.012 103.387 117.348 99.0511 113.088C94.7779 108.908 92.345 103.294 92.6881 97.2428L92.6569 97.2116Z" fill="#505050"/>
<path id="Vector_2" d="M55.2278 109.688C55.2683 111.996 56.0044 116.488 57.1086 119.981C59.4292 127.404 63.378 134.266 68.8364 140.286C74.4508 146.493 81.3752 151.484 89.3601 155.04C97.7505 158.751 106.858 160.654 116.309 160.654C125.76 160.642 134.868 158.708 143.258 154.946C151.243 151.359 158.167 146.369 163.782 140.13C169.271 134.048 173.201 127.186 175.51 119.763C176.679 116.02 177.418 112.214 177.715 108.409C178.005 104.666 177.883 100.892 177.35 97.118C176.308 89.7881 173.763 82.8949 169.864 76.6567C166.308 70.8864 161.692 65.8646 156.202 61.6227L156.215 61.6133L101.007 19.1935C100.957 19.1561 100.916 19.1155 100.863 19.0812C97.2452 16.299 91.1317 16.3084 87.1705 19.0968C83.1468 21.9165 82.679 26.5827 86.266 29.5146L86.2503 29.5302L109.301 48.276L39.1207 48.3509H39.0272C33.2257 48.3571 27.6425 52.1562 26.5508 56.9908C25.4154 61.8878 29.358 65.9738 35.409 65.9738L35.3997 65.9957L70.9574 65.927L7.32778 114.585C7.24668 114.644 7.15934 114.707 7.08448 114.766C1.09581 119.351 -0.838039 126.993 2.93607 131.796C6.77257 136.693 14.9134 136.724 20.9645 131.824L55.5865 103.44C55.5865 103.44 55.0812 107.277 55.1217 109.554L55.2278 109.688ZM144.434 122.507C137.291 129.775 127.279 133.923 116.487 133.923C105.664 133.942 95.6513 129.869 88.5086 122.601C85.0152 119.045 82.4575 114.99 80.8668 110.655C79.3166 106.382 78.7146 101.859 79.1139 97.3052C79.4913 92.8449 80.82 88.5717 82.9503 84.7352C85.0339 80.9611 87.9097 77.5301 91.4343 74.6293C98.3899 68.9838 107.217 65.8958 116.45 65.8958C125.713 65.8833 134.54 68.9182 141.496 74.5669C145.02 77.4489 147.89 80.8675 149.98 84.6416C152.11 88.4781 153.442 92.7201 153.816 97.2116C154.209 101.765 153.607 106.288 152.057 110.561C150.473 114.928 147.909 118.983 144.415 122.539L144.434 122.507Z" fill="#505050"/>
</g>
</g>
</svg>
