<svg width="489" height="509" viewBox="0 0 489 509" fill="none" xmlns="http://www.w3.org/2000/svg">
<g id="Maze">
<path id="walls" d="M485.7 14.0168V496.7M437.432 400.164V448.432M437.432 158.822V303.627M389.164 448.432V496.7M389.164 207.09V400.164M389.164 14.0168V110.553M340.895 110.553V303.627M292.627 303.627V351.895M292.627 158.822V255.359M244.358 303.627V400.164M196.09 351.895V448.432M196.09 255.359V303.627M196.09 14.0168V207.09M147.822 351.895V400.164M147.822 158.822V255.359M147.822 14.0168V62.2851M99.5534 303.627V448.432M99.5534 207.09V255.359M99.5534 62.2851V110.553M51.2851 351.895V400.164M51.2851 158.822V303.627M51.2851 62.2851V110.553M3.01672 14.0168V496.7M292.627 496.7H485.7M3.01672 496.7H244.358M147.822 448.432H389.164M51.2851 448.432H99.5534M244.358 400.164H437.432M3.01672 400.164H51.2851M389.164 351.895H485.7M292.627 351.895H340.895M147.822 351.895H196.09M292.627 303.627H340.895M51.2851 303.627H244.358M244.358 255.359H292.627M99.5534 255.359H147.822M196.09 207.09H244.358M340.895 158.822H485.7M196.09 158.822H292.627M51.2851 158.822H147.822M389.164 110.553H437.432M244.358 110.553H340.895M51.2851 110.553H196.09M437.432 62.2851H485.7M196.09 62.2851H340.895M244.358 14.0168H485.7M3.01672 14.0168H196.09" stroke="#505050" stroke-width="6.03352" stroke-linecap="square"/>
<path id="Solution" d="M269 488V472.566H27.1509V424.298H75.4192V327.761H27.1509V134.688H171.956V231.224H220.224V279.493H316.761V134.688H220.224V86.4193H365.029V38.151H220.224V21" stroke="#FF0000" stroke-width="6.03354" stroke-linecap="square" stroke-linejoin="round"/>
<circle id="End" cx="220" cy="11" r="9" stroke="#FF0000" stroke-width="4"/>
<circle id="Start" cx="269" cy="498" r="9" stroke="#FF0000" stroke-width="4"/>
</g>
</svg>
