<svg width="347" height="347" viewBox="0 0 347 347" fill="none" xmlns="http://www.w3.org/2000/svg">
<path fill-rule="evenodd" clip-rule="evenodd" d="M25.4674 242.761L25.4675 242.753L25.4581 242.752C25.4719 245.956 25.5023 249.346 25.5241 251.772C25.5382 253.34 25.5486 254.505 25.5486 254.956C25.5486 306.786 91.2974 331.713 173.001 332H173.201C254.905 331.713 320.639 306.801 320.639 254.956C320.639 254.492 320.65 253.306 320.665 251.715C320.687 249.295 320.719 245.937 320.734 242.752L320.275 242.796L274.489 250.217L272.977 271.887C272.671 276.275 269.129 279.824 264.739 280.139L206.59 284.286C206.381 284.301 206.167 284.308 205.952 284.308C201.578 284.308 197.797 281.042 197.159 276.713L194.205 256.671H151.981L149.027 276.713C148.388 281.044 144.611 284.31 140.243 284.31C140.026 284.31 139.809 284.301 139.588 284.286L81.4549 280.139C77.0636 279.824 73.5228 276.275 73.2167 271.887L71.7027 250.217L25.4674 242.761ZM320.621 230.951L320.621 231.05L320.647 231.05V223.946L320.67 223.938V142.023H320.872C328.103 132.795 334.794 123.068 341.215 112.693C332.693 98.1859 322.244 85.2171 311.085 73.2134C300.734 78.4236 290.682 84.3259 281.181 90.6007C277.169 86.6128 272.729 83.2376 268.276 79.8526C267.455 79.2286 266.634 78.6043 265.815 77.9757C262.258 75.1191 258.391 72.7873 254.522 70.455C252.773 69.4003 251.023 68.3454 249.302 67.2418C250.946 55.0013 251.759 42.9479 252.086 30.3712C237.841 23.2021 222.65 18.4489 207.283 15.0348C201.149 25.345 195.539 36.5087 190.65 47.4266C184.856 46.4585 179.035 46.0996 173.202 46.0302V46.0212C173.182 46.0212 173.163 46.0234 173.144 46.0256C173.125 46.0279 173.107 46.0302 173.089 46.0302C173.053 46.0302 173.015 46.0212 172.979 46.0212V46.0302C167.14 46.0996 161.324 46.4585 155.532 47.4266C150.649 36.5117 145.042 25.3495 138.898 15.0348C123.547 18.4489 108.346 23.2021 94.1107 30.3712C94.4365 42.9479 95.2493 54.9968 96.8975 67.2418C95.1827 68.3404 93.4408 69.3908 91.6994 70.4409C87.8237 72.7779 83.9507 75.1133 80.3849 77.9757C79.5228 78.639 78.6577 79.2975 77.7927 79.9559L77.7906 79.9575L77.7885 79.9591C73.3882 83.3085 68.9922 86.6546 65.0184 90.6007C55.5225 84.3199 45.4747 78.4176 35.1148 73.2134C23.9541 85.2247 13.5202 98.1859 5 112.693C11.4135 123.068 18.109 132.795 25.3429 142.023L25.554 142.017V230.952C25.6891 230.909 25.8072 230.185 25.9252 229.461C26.0478 228.709 26.1704 227.957 26.3119 227.971L80.9015 233.234C85.243 233.653 88.6149 237.116 88.9195 241.468L90.4185 262.957L132.627 265.968L135.5 246.5C136.14 242.169 139.922 238.904 144.298 238.904H201.888C206.266 238.904 210.048 242.169 210.688 246.5L213.559 265.968L255.768 262.957L257.267 241.468C257.571 237.117 260.943 233.655 265.285 233.235L319.844 227.971C320.131 227.944 320.621 230.951 320.621 230.951ZM95.7312 211.055C113.895 211.055 128.621 196.322 128.621 178.151C128.621 159.992 113.903 145.276 95.7312 145.276C77.5719 145.276 62.8417 159.995 62.8417 178.151C62.8417 196.333 77.5749 211.055 95.7312 211.055ZM173.154 214.017C167.306 214.017 162.566 209.708 162.566 204.395V174.114C162.566 168.806 167.306 164.492 173.154 164.492C179.002 164.492 183.752 168.806 183.752 174.114V204.395C183.752 209.708 179.002 214.017 173.154 214.017ZM250.459 211.055C232.28 211.055 217.554 196.322 217.554 178.151C217.554 159.992 232.287 145.276 250.459 145.276C268.619 145.276 283.348 159.995 283.348 178.151C283.348 196.333 268.615 211.055 250.459 211.055Z" fill="#505050"/>
<path d="M120.754 180.017C120.754 192.072 110.984 201.838 98.9182 201.838C86.8602 201.838 77.0823 192.068 77.0823 180.017C77.0823 167.967 86.8587 158.182 98.9182 158.182C110.982 158.182 120.754 167.961 120.754 180.017Z" fill="#505050"/>
<path d="M225.554 180.017C225.554 192.072 235.321 201.838 247.375 201.838C259.442 201.838 269.211 192.068 269.211 180.017C269.211 167.967 259.443 158.182 247.375 158.182C235.32 158.182 225.554 167.961 225.554 180.017" fill="#505050"/>
</svg>
