<svg width="178" height="178" viewBox="0 0 178 178" fill="none" xmlns="http://www.w3.org/2000/svg">
<g id="Inkscape">
<path id="Subtract" fill-rule="evenodd" clip-rule="evenodd" d="M7.7502 74.4419L72.7175 7.89772C80.4442 0.0133411 94.163 0.0133411 102.52 7.89772L169.853 76.8072C188.579 95.5329 164.857 103.687 144.179 110.795C135.952 113.623 128.207 116.286 123.808 119.383C120.625 121.634 124.896 124.001 129.714 126.67C134.681 129.422 140.229 132.496 138.789 136.098C136.113 142.908 131.478 144.133 125.678 145.665C120.196 147.114 113.673 148.837 106.778 155.809C103.927 158.739 106.844 160.198 109.655 161.603C112.44 162.996 115.121 164.336 111.982 167.005C101.89 175.362 79.3404 180.25 77.6058 170.474C76.1411 162.271 70.5044 161.265 65.1137 160.302C61.7989 159.71 58.5772 159.134 56.4757 156.912C53.6373 153.995 56.5151 150.999 59.3929 148.003C62.2707 145.007 65.1485 142.011 62.3101 139.094C59.5003 136.284 51.0891 133.552 42.6213 130.801C33.9811 127.994 25.2821 125.168 22.4151 122.221C19.4123 119.218 25.5153 116.257 31.2221 113.488C36.6034 110.878 41.6324 108.438 38.3416 106.295C34.0438 103.568 27.5247 101.817 21.0748 100.084C5.51654 95.9039 -9.63978 91.8319 7.7502 74.4419ZM147.304 136.098C147.304 139.409 173.007 141.301 171.588 135.309C169.538 125.217 150.142 126.006 147.304 136.098ZM37.7108 153.601C43.5453 158.647 52.3758 152.497 55.2142 145.401C49.5374 137.99 28.565 145.874 37.7108 153.601ZM144.15 143.036C136.896 149.659 145.411 156.597 152.507 152.024C154.4 150.763 152.35 144.613 144.15 143.036ZM124.281 38.8045L98.5782 12.6284C92.9015 6.9516 82.9672 6.79391 77.2904 12.6284C75.2536 14.7815 71.5846 18.4381 67.3138 22.6944C60.012 29.9714 50.951 39.0016 45.2798 45.2697C40.7069 49.8426 40.0762 54.4156 44.4914 54.4156L67.3561 54.5732L76.502 34.7046L82.1787 57.5693L99.3667 46.6889L109.932 52.3656L112.455 37.0699L125.227 47.4773C126.647 46.0581 126.647 41.1698 124.281 38.8045Z" fill="#505050"/>
</g>
</svg>
